<svg width="49" height="49" viewBox="0 0 49 49" fill="none" xmlns="http://www.w3.org/2000/svg">
<circle cx="24.5" cy="24.5" r="24.5" fill="#008CD4" fill-opacity="0.5"/>
<circle cx="24.5" cy="24.5" r="10.1744" fill="#008CD4"/>
<path d="M30.2994 22.5669H26.4332V18.7006C26.4332 18.1879 26.2295 17.6962 25.867 17.3337C25.5044 16.9711 25.0127 16.7675 24.5 16.7675C23.9873 16.7675 23.4956 16.9711 23.1331 17.3337C22.7705 17.6962 22.5669 18.1879 22.5669 18.7006L22.6355 22.5669H18.7006C18.1879 22.5669 17.6962 22.7705 17.3337 23.1331C16.9711 23.4956 16.7675 23.9873 16.7675 24.5C16.7675 25.0127 16.9711 25.5044 17.3337 25.867C17.6962 26.2295 18.1879 26.4332 18.7006 26.4332L22.6355 26.3645L22.5669 30.2994C22.5669 30.8121 22.7705 31.3038 23.1331 31.6664C23.4956 32.0289 23.9873 32.2326 24.5 32.2326C25.0127 32.2326 25.5044 32.0289 25.867 31.6664C26.2295 31.3038 26.4332 30.8121 26.4332 30.2994V26.3645L30.2994 26.4332C30.8121 26.4332 31.3038 26.2295 31.6664 25.867C32.0289 25.5044 32.2326 25.0127 32.2326 24.5C32.2326 23.9873 32.0289 23.4956 31.6664 23.1331C31.3038 22.7705 30.8121 22.5669 30.2994 22.5669Z" fill="#EEF2F7"/>
</svg>
