<svg width="28" height="28" viewBox="0 0 28 28" fill="none" xmlns="http://www.w3.org/2000/svg">
<g clip-path="url(#clip0_101_237)">
<path fill-rule="evenodd" clip-rule="evenodd" d="M27.9834 7.96741V22.7521C27.9834 23.7164 27.1985 24.5011 26.2343 24.5011H20.9878C20.5039 24.5011 20.1128 24.1101 20.1128 23.627C20.1128 23.1431 20.5039 22.7521 20.9878 22.7521H26.2343V8.75732H20.1128C19.6297 8.75732 19.2386 8.36631 19.2386 7.88237V1.69902H10.5C10.017 1.69902 9.61888 1.3685 9.61888 0.885443C9.61888 0.401506 10.01 0.010498 10.4939 0.010498H20.1128C20.132 0.010498 20.1478 0.0201417 20.1661 0.0210184C20.2458 0.0262786 20.3228 0.0420592 20.3989 0.0683601C20.4269 0.0780038 20.454 0.0850174 20.4802 0.0972912C20.5695 0.138496 20.6526 0.191098 20.7253 0.262111C20.7279 0.264741 20.7305 0.265617 20.7323 0.268247L27.6325 7.16874C27.6605 7.18803 27.6745 7.22222 27.699 7.24501C27.7244 7.26869 27.7436 7.29586 27.7664 7.32216C27.9011 7.47559 28.0009 7.66145 28.0009 7.88237C28.0009 7.91306 27.9869 7.93848 27.9834 7.96741ZM20.9878 2.99653V7.00831H24.9979L20.9878 2.99653ZM10.5464 3.51992C10.6269 3.52518 10.703 3.54009 10.7791 3.56726C10.8071 3.57691 10.8343 3.58392 10.8614 3.5962C10.9497 3.6374 11.0338 3.69 11.1055 3.76101C11.1081 3.76364 11.1108 3.76452 11.1134 3.76715L18.0128 10.6676C18.0408 10.6869 18.0548 10.7211 18.0801 10.7439C18.1055 10.7676 18.1248 10.7939 18.1466 10.8202C18.2814 10.9745 18.3811 11.1604 18.3811 11.3813C18.3811 11.4111 18.3671 11.4365 18.3645 11.4663V26.251C18.3645 27.2153 17.5796 28 16.6154 28H1.74825C0.784875 28 0 27.2153 0 26.251V5.25842C0 4.29405 0.784875 3.5094 1.74825 3.5094H10.4939C10.5122 3.5094 10.528 3.51905 10.5464 3.51992ZM11.368 6.49544V10.5063H15.3781L11.368 6.49544ZM9.61888 11.3813V5.20581H1.75L1.74825 26.251H16.6154V12.2194H10.5C10.017 12.2194 9.61888 11.8643 9.61888 11.3813Z" fill="#17242A"/>
</g>
<defs>
<clipPath id="clip0_101_237">
<rect width="28" height="28" fill="white"/>
</clipPath>
</defs>
</svg>
